<svg xmlns="http://www.w3.org/2000/svg" xmlns:xlink="http://www.w3.org/1999/xlink" width="2000" zoomAndPan="magnify" viewBox="0 0 1500 1499.999933" height="2000" preserveAspectRatio="xMidYMid meet" version="1.0"><defs><g/></defs><rect x="-150" width="1800" fill="#ffffff" y="-149.999993" height="1799.99992" fill-opacity="1"/><rect x="-150" width="1800" fill="#ffffff" y="-149.999993" height="1799.99992" fill-opacity="1"/><g fill="#000000" fill-opacity="1"><g transform="translate(613.880346, 588.779233)"><g><path d="M 11.828125 0 L 11.828125 -102.03125 L 68.171875 -102.03125 L 68.171875 -90.203125 L 26.625 -90.203125 L 26.625 -59 L 66.09375 -59 L 66.09375 -47.171875 L 26.625 -47.171875 L 26.625 -11.828125 L 69.5 -11.828125 L 69.5 0 Z M 11.828125 0 "/></g></g></g><g fill="#000000" fill-opacity="1"><g transform="translate(695.207445, 588.779233)"><g><path d="M 66.6875 0 L 25.4375 -81.78125 L 25.140625 -81.78125 L 25.140625 0 L 11.828125 0 L 11.828125 -102.03125 L 30.3125 -102.03125 L 70.53125 -22.1875 L 70.828125 -22.1875 L 70.828125 -102.03125 L 84.140625 -102.03125 L 84.140625 0 Z M 66.6875 0 "/></g></g></g><g fill="#000000" fill-opacity="1"><g transform="translate(798.418885, 588.779233)"><g><path d="M 35.34375 -11.828125 C 38 -11.828125 40.707031 -12.023438 43.46875 -12.421875 C 46.226562 -12.816406 48.796875 -13.601562 51.171875 -14.78125 C 54.222656 -16.457031 56.660156 -18.703125 58.484375 -21.515625 C 60.304688 -24.328125 61.6875 -27.40625 62.625 -30.75 C 63.5625 -34.101562 64.148438 -37.53125 64.390625 -41.03125 C 64.640625 -44.53125 64.765625 -47.859375 64.765625 -51.015625 C 64.765625 -54.066406 64.640625 -57.441406 64.390625 -61.140625 C 64.148438 -64.835938 63.5625 -68.382812 62.625 -71.78125 C 61.6875 -75.1875 60.234375 -78.316406 58.265625 -81.171875 C 56.296875 -84.035156 53.632812 -86.207031 50.28125 -87.6875 C 47.914062 -88.769531 45.445312 -89.457031 42.875 -89.75 C 40.3125 -90.050781 37.75 -90.203125 35.1875 -90.203125 L 26.625 -90.203125 L 26.625 -11.828125 Z M 11.828125 0 L 11.828125 -102.03125 L 38 -102.03125 C 46.382812 -102.03125 53.335938 -100.820312 58.859375 -98.40625 C 64.378906 -95.988281 68.789062 -92.5625 72.09375 -88.125 C 75.394531 -83.695312 77.707031 -78.351562 79.03125 -72.09375 C 80.363281 -65.832031 81.03125 -58.90625 81.03125 -51.3125 C 81.03125 -43.519531 80.363281 -36.46875 79.03125 -30.15625 C 77.707031 -23.851562 75.394531 -18.457031 72.09375 -13.96875 C 68.789062 -9.488281 64.378906 -6.039062 58.859375 -3.625 C 53.335938 -1.207031 46.382812 0 38 0 Z M 11.828125 0 "/></g></g></g><g fill="#000000" fill-opacity="1"><g transform="translate(455.442856, 738.02922)"><g><path d="M 74.234375 -4.4375 C 70.085938 -2.5625 65.722656 -1.082031 61.140625 0 C 56.554688 1.082031 52 1.625 47.46875 1.625 C 39.582031 1.625 33.023438 0.0976562 27.796875 -2.953125 C 22.578125 -6.015625 18.410156 -10.054688 15.296875 -15.078125 C 12.191406 -20.109375 10 -25.851562 8.71875 -32.3125 C 7.4375 -38.769531 6.796875 -45.398438 6.796875 -52.203125 C 6.796875 -58.609375 7.382812 -64.890625 8.5625 -71.046875 C 9.75 -77.210938 11.796875 -82.707031 14.703125 -87.53125 C 17.617188 -92.363281 21.566406 -96.257812 26.546875 -99.21875 C 31.523438 -102.175781 37.804688 -103.65625 45.390625 -103.65625 C 50.023438 -103.65625 54.335938 -103.039062 58.328125 -101.8125 C 62.328125 -100.582031 65.804688 -98.707031 68.765625 -96.1875 C 71.722656 -93.675781 74.035156 -90.570312 75.703125 -86.875 C 77.378906 -83.175781 78.21875 -78.910156 78.21875 -74.078125 L 61.078125 -74.078125 C 61.273438 -79.410156 60.039062 -83.703125 57.375 -86.953125 C 54.71875 -90.203125 50.578125 -91.828125 44.953125 -91.828125 C 40.222656 -91.828125 36.398438 -90.566406 33.484375 -88.046875 C 30.578125 -85.535156 28.359375 -82.40625 26.828125 -78.65625 C 25.304688 -74.914062 24.296875 -70.875 23.796875 -66.53125 C 23.304688 -62.195312 23.0625 -58.207031 23.0625 -54.5625 C 23.0625 -49.832031 23.332031 -44.851562 23.875 -39.625 C 24.414062 -34.40625 25.625 -29.625 27.5 -25.28125 C 29.375 -20.945312 32.132812 -17.347656 35.78125 -14.484375 C 39.425781 -11.628906 44.304688 -10.203125 50.421875 -10.203125 C 54.960938 -10.203125 59.128906 -10.914062 62.921875 -12.34375 C 66.710938 -13.769531 70.484375 -15.71875 74.234375 -18.1875 Z M 74.234375 -4.4375 "/></g></g></g><g fill="#000000" fill-opacity="1"><g transform="translate(542.241044, 738.02922)"><g><path d="M 65.0625 -102.03125 L 79.859375 -102.03125 L 79.859375 -30.171875 C 79.859375 -24.847656 78.992188 -20.1875 77.265625 -16.1875 C 75.535156 -12.195312 73.144531 -8.867188 70.09375 -6.203125 C 67.039062 -3.546875 63.394531 -1.578125 59.15625 -0.296875 C 54.914062 0.984375 50.234375 1.625 45.109375 1.625 C 39.972656 1.625 35.285156 0.984375 31.046875 -0.296875 C 26.804688 -1.578125 23.179688 -3.546875 20.171875 -6.203125 C 17.171875 -8.867188 14.832031 -12.195312 13.15625 -16.1875 C 11.476562 -20.1875 10.640625 -24.847656 10.640625 -30.171875 L 10.640625 -102.03125 L 25.4375 -102.03125 L 25.4375 -32.96875 C 25.4375 -29.519531 25.726562 -26.390625 26.3125 -23.578125 C 26.90625 -20.773438 27.941406 -18.382812 29.421875 -16.40625 C 30.898438 -14.4375 32.894531 -12.910156 35.40625 -11.828125 C 37.925781 -10.742188 41.109375 -10.203125 44.953125 -10.203125 C 48.898438 -10.203125 52.175781 -10.71875 54.78125 -11.75 C 57.394531 -12.789062 59.46875 -14.296875 61 -16.265625 C 62.53125 -18.234375 63.585938 -20.625 64.171875 -23.4375 C 64.765625 -26.25 65.0625 -29.425781 65.0625 -32.96875 Z M 65.0625 -102.03125 "/></g></g></g><g fill="#000000" fill-opacity="1"><g transform="translate(639.981395, 738.02922)"><g><path d="M 11.828125 0 L 11.828125 -102.03125 L 26.625 -102.03125 L 26.625 -11.828125 L 65.796875 -11.828125 L 65.796875 0 Z M 11.828125 0 "/></g></g></g><g fill="#000000" fill-opacity="1"><g transform="translate(713.02794, 738.02922)"><g><path d="M 25.4375 0 L 25.4375 -90.203125 L 0 -90.203125 L 0 -102.03125 L 65.65625 -102.03125 L 65.65625 -90.203125 L 40.21875 -90.203125 L 40.21875 0 Z M 25.4375 0 "/></g></g></g><g fill="#000000" fill-opacity="1"><g transform="translate(786.074495, 738.02922)"><g><path d="M 65.0625 -102.03125 L 79.859375 -102.03125 L 79.859375 -30.171875 C 79.859375 -24.847656 78.992188 -20.1875 77.265625 -16.1875 C 75.535156 -12.195312 73.144531 -8.867188 70.09375 -6.203125 C 67.039062 -3.546875 63.394531 -1.578125 59.15625 -0.296875 C 54.914062 0.984375 50.234375 1.625 45.109375 1.625 C 39.972656 1.625 35.285156 0.984375 31.046875 -0.296875 C 26.804688 -1.578125 23.179688 -3.546875 20.171875 -6.203125 C 17.171875 -8.867188 14.832031 -12.195312 13.15625 -16.1875 C 11.476562 -20.1875 10.640625 -24.847656 10.640625 -30.171875 L 10.640625 -102.03125 L 25.4375 -102.03125 L 25.4375 -32.96875 C 25.4375 -29.519531 25.726562 -26.390625 26.3125 -23.578125 C 26.90625 -20.773438 27.941406 -18.382812 29.421875 -16.40625 C 30.898438 -14.4375 32.894531 -12.910156 35.40625 -11.828125 C 37.925781 -10.742188 41.109375 -10.203125 44.953125 -10.203125 C 48.898438 -10.203125 52.175781 -10.71875 54.78125 -11.75 C 57.394531 -12.789062 59.46875 -14.296875 61 -16.265625 C 62.53125 -18.234375 63.585938 -20.625 64.171875 -23.4375 C 64.765625 -26.25 65.0625 -29.425781 65.0625 -32.96875 Z M 65.0625 -102.03125 "/></g></g></g><g fill="#000000" fill-opacity="1"><g transform="translate(883.814859, 738.02922)"><g><path d="M 35.046875 -55.75 C 37.898438 -55.75 40.609375 -56.066406 43.171875 -56.703125 C 45.742188 -57.347656 48.015625 -58.382812 49.984375 -59.8125 C 51.953125 -61.238281 53.503906 -63.0625 54.640625 -65.28125 C 55.773438 -67.5 56.34375 -70.238281 56.34375 -73.5 C 56.34375 -79.40625 54.789062 -83.664062 51.6875 -86.28125 C 48.582031 -88.894531 44.171875 -90.203125 38.453125 -90.203125 L 26.46875 -90.203125 L 26.46875 -55.75 Z M 61.21875 0 L 55.015625 -22.625 C 54.117188 -25.78125 53.273438 -28.660156 52.484375 -31.265625 C 51.703125 -33.878906 50.644531 -36.125 49.3125 -38 C 47.976562 -39.875 46.203125 -41.328125 43.984375 -42.359375 C 41.773438 -43.398438 38.75 -43.921875 34.90625 -43.921875 L 26.46875 -43.921875 L 26.46875 0 L 11.6875 0 L 11.6875 -102.03125 L 41.25 -102.03125 C 45.59375 -102.03125 49.585938 -101.507812 53.234375 -100.46875 C 56.878906 -99.4375 60.03125 -97.835938 62.6875 -95.671875 C 65.351562 -93.503906 67.425781 -90.742188 68.90625 -87.390625 C 70.382812 -84.035156 71.125 -79.992188 71.125 -75.265625 C 71.125 -68.367188 69.398438 -63.019531 65.953125 -59.21875 C 62.503906 -55.425781 57.523438 -52.742188 51.015625 -51.171875 L 51.015625 -50.875 C 54.265625 -50.175781 56.898438 -49.160156 58.921875 -47.828125 C 60.941406 -46.503906 62.566406 -44.878906 63.796875 -42.953125 C 65.035156 -41.035156 66 -38.867188 66.6875 -36.453125 C 67.382812 -34.035156 68.023438 -31.347656 68.609375 -28.390625 L 74.671875 0 Z M 61.21875 0 "/></g></g></g><g fill="#000000" fill-opacity="1"><g transform="translate(970.613023, 738.02922)"><g><path d="M 11.828125 0 L 11.828125 -102.03125 L 68.171875 -102.03125 L 68.171875 -90.203125 L 26.625 -90.203125 L 26.625 -59 L 66.09375 -59 L 66.09375 -47.171875 L 26.625 -47.171875 L 26.625 -11.828125 L 69.5 -11.828125 L 69.5 0 Z M 11.828125 0 "/></g></g></g><path stroke-linecap="butt" transform="matrix(0.75, 0, 0, 0.75, 566.108769, 769.669954)" fill="none" stroke-linejoin="miter" d="M 0.000808548 5.002562 L 490.375851 5.002562 " stroke="#000000" stroke-width="10" stroke-opacity="1" stroke-miterlimit="4"/></svg>